<svg xmlns="http://www.w3.org/2000/svg" xmlns:xlink="http://www.w3.org/1999/xlink" width="2304" zoomAndPan="magnify" viewBox="0 0 1728 1295.99994" height="1728" preserveAspectRatio="xMidYMid meet" version="1.0"><defs><clipPath id="id1"><path d="M 1160 433 L 1446 433 L 1446 1166.773438 L 1160 1166.773438 Z M 1160 433 " clip-rule="nonzero"/></clipPath></defs><rect x="-172.8" width="2073.6" fill="#ffffff" y="-129.599994" height="1555.199927" fill-opacity="1"/><rect x="-172.8" width="2073.6" fill="#545454" y="-129.599994" height="1555.199927" fill-opacity="1"/><rect x="-172.8" width="2073.6" fill="#ffffff" y="-129.599994" height="1555.199927" fill-opacity="1"/><rect x="-172.8" width="2073.6" fill="#545454" y="-129.599994" height="1555.199927" fill-opacity="1"/><path fill="#00c2cb" d="M 331.476562 1163.847656 C 297.199219 1112.160156 302.222656 1044.21875 329.171875 1007.09375 C 599.289062 1008.683594 870.691406 1005.503906 1140.808594 1007.09375 C 1146.238281 1007.144531 1151.925781 1007.246094 1156.640625 1009.914062 C 1162.839844 1013.453125 1165.863281 1020.632812 1168.167969 1027.398438 C 1175.957031 1050.167969 1182.617188 1136.980469 1156.691406 1152.3125 C 1152.335938 1154.875 1147.007812 1155.183594 1141.882812 1155.335938 C 918.699219 1163.59375 695.308594 1165.542969 472.019531 1163.4375 Z M 331.476562 1163.847656 " fill-opacity="1" fill-rule="nonzero"/><path stroke-linecap="round" transform="matrix(5.123649, 0, 0, 5.127762, -225.207626, -290.537601)" fill="none" stroke-linejoin="round" d="M 121.34002 281.649754 C 118.570235 272.010132 118.519917 261.600346 121.199739 251.930252 " stroke="#365fa0" stroke-width="0.835" stroke-opacity="1" stroke-miterlimit="10"/><path stroke-linecap="round" transform="matrix(5.123649, 0, 0, 5.127762, -225.207626, -290.537601)" fill="none" stroke-linejoin="round" d="M 238.620165 281.739645 C 240.739626 271.760267 240.830351 263.900173 238.940372 253.869756 " stroke="#365fa0" stroke-width="0.835" stroke-opacity="1" stroke-miterlimit="10"/><path stroke-linecap="round" transform="matrix(5.123649, 0, 0, 5.127762, -225.207626, -290.537601)" fill="none" stroke-linejoin="round" d="M 231.08998 281.099745 C 232.850352 273.360014 232.819856 263.689921 230.990106 255.960093 " stroke="#365fa0" stroke-width="0.835" stroke-opacity="1" stroke-miterlimit="10"/><path stroke-linecap="round" transform="matrix(5.123649, 0, 0, 5.127762, -225.207626, -290.537601)" fill="none" stroke-linejoin="round" d="M 131.77036 271.739698 C 134.370131 270.500275 136.479681 268.290338 137.610314 265.640089 C 136.440036 267.479799 137.229878 270.590166 139.399658 270.789753 C 140.870319 270.929921 142.119887 269.710304 142.819766 268.419841 C 143.519646 267.13014 143.909993 265.649993 144.850027 264.509601 C 144.330073 266.010317 144.279755 267.670245 144.699835 269.209812 C 144.799709 269.570136 144.93999 269.950267 145.250285 270.149854 C 145.639869 270.409623 146.149912 270.309829 146.589815 270.190229 C 149.91996 269.250186 152.830026 266.919887 154.479851 263.880367 C 154.080356 265.470211 154.090267 267.169753 154.510347 268.749694 C 154.639954 269.26009 154.880109 269.829905 155.390152 269.999782 C 155.810232 270.139951 156.260046 269.96017 156.64963 269.749917 C 158.879639 268.579816 160.710152 266.650216 161.759971 264.360291 C 161.570134 265.550199 161.390209 266.789622 161.740149 267.939917 C 162.090088 269.090212 163.15973 270.120144 164.359741 270.019589 C 164.959747 269.970073 165.500286 269.650123 166.010329 269.309606 C 167.930042 268.029808 169.620274 266.410254 170.979626 264.559879 C 171.190048 265.589812 170.799701 266.650216 170.740234 267.699955 C 170.680005 268.749694 171.199959 270.030254 172.249778 270.130048 C 172.859695 270.190229 173.429967 269.810098 173.910277 269.439871 C 175.579924 268.160073 177.100142 266.689829 178.439672 265.070275 C 178.14005 265.899858 177.850339 266.769816 177.979947 267.649677 C 178.110316 268.519635 178.820107 269.369787 179.699912 269.359883 C 180.309829 269.34998 180.839694 268.950043 181.310093 268.56001 C 182.55966 267.520174 183.739849 266.399589 184.839986 265.220346 C 183.769582 266.149723 184.019648 268.060279 185.150281 268.909669 C 186.290064 269.749917 187.969622 269.589942 189.110166 268.760359 C 190.25986 267.930014 190.920095 266.570228 191.199894 265.179972 " stroke="#365fa0" stroke-width="0.835" stroke-opacity="1" stroke-miterlimit="10"/><path fill="#38b6ff" d="M 395.625 1006.425781 C 380.867188 985.199219 382.046875 939.714844 393.730469 918.539062 C 619.476562 919.460938 843.738281 905.972656 1069.488281 906.898438 C 1074.046875 906.898438 1078.8125 906.949219 1082.757812 908.488281 C 1087.933594 910.488281 1090.441406 914.488281 1092.390625 918.28125 C 1098.898438 931.050781 1103.507812 997.195312 1081.835938 1005.8125 C 1078.199219 1007.246094 1073.738281 1007.402344 1069.488281 1007.503906 C 882.988281 1012.117188 699.765625 1007.402344 513.160156 1006.222656 Z M 395.625 1006.425781 " fill-opacity="1" fill-rule="nonzero"/><path stroke-linecap="round" transform="matrix(5.123649, 0, 0, 5.127762, -225.207626, -290.537601)" fill="none" stroke-linejoin="round" d="M 142.070331 248.880067 C 145.799972 249.20992 150.390359 249.50016 153.539817 247.479907 C 155.329923 246.330374 156.899696 244.360399 155.550255 242.359953 C 153.869934 239.859776 150.19976 239.869679 147.529849 239.720369 C 142.469826 239.440033 136.279933 239.379852 131.960197 242.420134 C 126.370309 246.330374 139.590257 248.659911 142.070331 248.880067 Z M 142.070331 248.880067 " stroke="#365fa0" stroke-width="0.835" stroke-opacity="1" stroke-miterlimit="10"/><path stroke-linecap="round" transform="matrix(5.123649, 0, 0, 5.127762, -225.207626, -290.537601)" fill="none" stroke-linejoin="round" d="M 161.089825 249.170307 C 160.759707 246.08965 160.419679 242.999852 160.090324 239.919957 " stroke="#365fa0" stroke-width="0.835" stroke-opacity="1" stroke-miterlimit="10"/><path stroke-linecap="round" transform="matrix(5.123649, 0, 0, 5.127762, -225.207626, -290.537601)" fill="none" stroke-linejoin="round" d="M 164.490111 249.759928 C 164.029624 246.110218 163.78032 242.43994 163.759736 238.759759 " stroke="#365fa0" stroke-width="0.835" stroke-opacity="1" stroke-miterlimit="10"/><path stroke-linecap="round" transform="matrix(5.123649, 0, 0, 5.127762, -225.207626, -290.537601)" fill="none" stroke-linejoin="round" d="M 240.060331 248.979861 C 240.119798 245.960147 240.010013 242.929768 239.709629 239.919957 " stroke="#365fa0" stroke-width="0.835" stroke-opacity="1" stroke-miterlimit="10"/><path stroke-linecap="round" transform="matrix(5.123649, 0, 0, 5.127762, -225.207626, -290.537601)" fill="none" stroke-linejoin="round" d="M 243.940165 248.790176 C 243.739655 245.049814 243.440033 241.310214 243.019953 237.579755 " stroke="#365fa0" stroke-width="0.835" stroke-opacity="1" stroke-miterlimit="10"/><path fill="#000000" d="M 305.652344 917.871094 C 273.324219 853.824219 278.039062 769.78125 303.5 723.785156 C 558.042969 725.785156 813.765625 721.785156 1068.308594 723.785156 C 1073.433594 723.835938 1078.8125 723.9375 1083.269531 727.324219 C 1089.109375 731.734375 1091.980469 740.554688 1094.132812 748.960938 C 1101.457031 777.164062 1107.761719 884.644531 1083.320312 903.617188 C 1079.171875 906.847656 1074.199219 907.152344 1069.386719 907.359375 C 859.109375 917.613281 648.578125 919.972656 438.203125 917.359375 Z M 305.652344 917.871094 " fill-opacity="1" fill-rule="nonzero"/><path stroke-linecap="round" transform="matrix(5.123649, 0, 0, 5.127762, -225.207626, -290.537601)" fill="none" stroke-linejoin="round" d="M 115.619763 226.409708 C 121.889708 226.360192 128.149742 226.32972 134.419687 226.32972 C 133.969873 219.830174 133.520059 213.329866 133.070246 206.819655 C 133.049661 206.56979 133.029839 206.300118 132.869735 206.099769 C 132.660077 205.830097 132.279641 205.77982 131.940375 205.740207 C 126.030281 205.190198 120.089691 205.059933 114.169685 205.369979 C 114.730046 210.300249 115.640347 215.209951 115.640347 220.16993 Z M 115.619763 226.409708 " stroke="#365fa0" stroke-width="0.835" stroke-opacity="1" stroke-miterlimit="10"/><path stroke-linecap="round" transform="matrix(5.123649, 0, 0, 5.127762, -225.207626, -290.537601)" fill="none" stroke-linejoin="round" d="M 142.139709 216.040296 C 142.340219 217.63014 143.990044 218.880229 145.569729 218.65017 C 147.150176 218.420111 148.37992 216.750279 148.119943 215.170338 C 148.960104 216.649724 150.189849 218.06969 151.860258 218.369833 C 153.529906 218.669976 155.499937 217.25001 155.16982 215.590081 C 156.209728 216.869879 157.729946 217.979799 159.369859 217.800018 C 161.009773 217.620237 162.369888 215.580178 161.40012 214.240199 C 162.410295 215.720346 163.550077 217.310191 165.270042 217.790115 C 166.990008 218.279943 169.24975 216.850073 168.809847 215.12006 C 169.8002 216.729711 171.34024 218.000368 173.119672 218.640267 C 173.750173 217.25001 174.119936 215.740153 174.209898 214.209728 C 175.96036 215.629694 177.049824 218.609795 179.269921 218.219762 C 180.389881 218.020174 181.169812 216.879783 181.269686 215.740153 C 181.370322 214.599761 180.929657 213.489841 180.389881 212.479715 " stroke="#365fa0" stroke-width="0.835" stroke-opacity="1" stroke-miterlimit="10"/><path stroke-linecap="round" transform="matrix(5.123649, 0, 0, 5.127762, -225.207626, -290.537601)" fill="none" stroke-linejoin="round" d="M 214.07025 225.859699 C 214.500242 219.869787 214.590205 213.850165 214.330227 207.85035 " stroke="#365fa0" stroke-width="0.835" stroke-opacity="1" stroke-miterlimit="10"/><path stroke-linecap="round" transform="matrix(5.123649, 0, 0, 5.127762, -225.207626, -290.537601)" fill="none" stroke-linejoin="round" d="M 220.989757 225.209897 C 220.629906 219.210082 220.260144 213.210266 219.900293 207.220354 " stroke="#365fa0" stroke-width="0.835" stroke-opacity="1" stroke-miterlimit="10"/><path stroke-linecap="round" transform="matrix(5.123649, 0, 0, 5.127762, -225.207626, -290.537601)" fill="none" stroke-linejoin="round" d="M 226.070364 225.330259 C 226.160327 219.329682 226.25029 212.799664 226.350163 206.799849 C 233.300166 206.799849 240.959959 208.139828 248.289634 207.839685 C 249.399683 210.329959 249.899815 213.489841 249.879992 216.070006 C 249.86017 219.139997 249.399683 221.700355 248.150116 224.790154 C 242.539643 224.700263 236.910111 224.790154 231.320223 225.340162 L 226.070364 225.340162 Z M 226.070364 225.330259 " stroke="#365fa0" stroke-width="0.835" stroke-opacity="1" stroke-miterlimit="10"/><path fill="#8c52ff" d="M 433.847656 723.578125 C 404.027344 675.53125 408.332031 605.332031 433.285156 571.746094 C 675.886719 578.207031 919.671875 580.207031 1162.277344 586.667969 C 1167.144531 586.824219 1172.269531 586.976562 1176.46875 589.539062 C 1181.953125 592.925781 1184.5625 599.539062 1186.511719 605.796875 C 1193.070312 626.820312 1197.425781 706.605469 1173.855469 720.195312 C 1169.859375 722.503906 1165.09375 722.605469 1160.535156 722.707031 C 959.945312 726.195312 769.855469 729.476562 569.367188 723.476562 Z M 433.847656 723.578125 " fill-opacity="1" fill-rule="nonzero"/><path stroke-linecap="round" transform="matrix(5.123649, 0, 0, 5.127762, -225.207626, -290.537601)" fill-opacity="1" fill="#8c52ff" fill-rule="nonzero" stroke-linejoin="round" d="M 270.4502 197.599777 C 246.189996 198.020282 222.720396 198.430122 199.060197 198.399651 C 184.540365 198.379844 169.949629 198.200063 155.069946 197.749848 " stroke="#365fa0" stroke-width="0.835" stroke-opacity="1" stroke-miterlimit="10"/><path stroke-linecap="round" transform="matrix(5.123649, 0, 0, 5.127762, -225.207626, -290.537601)" fill="none" stroke-linejoin="round" d="M 128.520266 168.15985 C 156.070209 168.88964 183.690293 169.329951 211.310377 169.819779 C 220.100041 169.96985 228.879793 170.129825 237.660309 170.310368 C 248.709714 170.529762 259.759883 170.780389 270.80014 171.069867 C 271.750085 171.100339 272.750349 171.130048 273.569925 171.629779 C 274.640329 172.290246 275.149609 173.579947 275.530045 174.800326 " stroke="#365fa0" stroke-width="0.835" stroke-opacity="1" stroke-miterlimit="10"/><path stroke-linecap="round" transform="matrix(5.123649, 0, 0, 5.127762, -225.207626, -290.537601)" fill="none" stroke-linejoin="round" d="M 171.379884 190.940256 C 171.119907 185.889624 170.869841 180.829851 170.609864 175.779981 " stroke="#365fa0" stroke-width="0.835" stroke-opacity="1" stroke-miterlimit="10"/><path stroke-linecap="round" transform="matrix(5.123649, 0, 0, 5.127762, -225.207626, -290.537601)" fill="none" stroke-linejoin="round" d="M 175.020325 191.980092 C 174.649801 186.000083 174.510282 179.9797 174.600245 173.969981 " stroke="#365fa0" stroke-width="0.835" stroke-opacity="1" stroke-miterlimit="10"/><path stroke-linecap="round" transform="matrix(5.123649, 0, 0, 5.127762, -225.207626, -290.537601)" fill="none" stroke-linejoin="round" d="M 256.259722 192.370126 C 256.429737 187.42005 256.400003 182.469973 256.190344 177.5298 " stroke="#365fa0" stroke-width="0.835" stroke-opacity="1" stroke-miterlimit="10"/><path stroke-linecap="round" transform="matrix(5.123649, 0, 0, 5.127762, -225.207626, -290.537601)" fill="none" stroke-linejoin="round" d="M 260.430029 192.140067 C 260.340066 186.009986 260.140318 179.889809 259.820112 173.780297 " stroke="#365fa0" stroke-width="0.835" stroke-opacity="1" stroke-miterlimit="10"/><path stroke-linecap="round" transform="matrix(5.123649, 0, 0, 5.127762, -225.207626, -290.537601)" fill-opacity="1" fill="#38b6ff" fill-rule="nonzero" stroke-linejoin="round" d="M 181.030293 192.96965 C 180.979975 187.039919 181.460285 180.439818 181.409966 174.510086 C 190.939917 174.820133 208.099927 175.110373 218.06978 175.319863 C 218.659875 181.369956 218.040047 186.879944 217.690107 193.729911 C 208.830302 193.55013 198.900094 193.349781 186.579774 193.090012 Z M 181.030293 192.96965 " stroke="#365fa0" stroke-width="0.835" stroke-opacity="1" stroke-miterlimit="10"/><path stroke-linecap="round" transform="matrix(5.123649, 0, 0, 5.127762, -225.207626, -290.537601)" fill="none" stroke-linejoin="round" d="M 163.100263 191.459793 C 160.860344 189.979646 158.2499 188.999991 155.540344 188.61986 C 157.110118 188.900197 158.750031 188.810306 160.270249 188.369995 C 160.729974 188.229827 161.249928 187.999768 161.32998 187.550315 C 161.40012 187.180087 161.140143 186.829667 160.870255 186.559995 C 159.400355 185.030331 157.239725 184.110096 155.040212 184.059818 C 156.830318 184.250264 158.660069 184.079624 160.380034 183.579894 C 161.249928 183.320125 162.219696 182.789923 162.209785 181.939771 C 162.189962 181.149801 161.32998 180.65007 160.550048 180.330121 C 159.1602 179.760306 157.710123 179.329897 156.230312 179.029754 C 158.179759 179.550053 160.489819 180.000268 162.03977 178.789792 C 162.930249 178.089712 162.299747 176.790108 161.709653 176.099931 C 160.919811 175.169792 159.590192 174.679964 158.370358 174.480377 " stroke="#365fa0" stroke-width="0.835" stroke-opacity="1" stroke-miterlimit="10"/><g clip-path="url(#id1)"><path fill="#000000" d="M 1162.480469 461.808594 C 1159.40625 467.039062 1159.972656 491.804688 1163.710938 510.726562 C 1172.675781 556.054688 1178.929688 612.5625 1187.023438 658.253906 C 1217.40625 829.722656 1238.875 975.25 1274.175781 1145.953125 C 1275.507812 1152.363281 1277.25 1159.335938 1282.578125 1163.132812 C 1287.292969 1166.464844 1293.542969 1166.257812 1299.335938 1166.054688 C 1344.574219 1164.617188 1437.3125 1149.644531 1444.230469 1131.238281 C 1454.375 1118.570312 1385.105469 818.855469 1378.957031 788.085938 C 1366.503906 725.988281 1357.898438 673.121094 1346.371094 610.820312 C 1339.351562 572.671875 1328.027344 514.878906 1318.753906 476.679688 C 1306.25 424.9375 1289.496094 424.117188 1188.253906 449.246094 C 1174.675781 452.628906 1164.839844 457.808594 1162.480469 461.808594 Z M 1162.480469 461.808594 " fill-opacity="1" fill-rule="nonzero"/></g><path stroke-linecap="round" transform="matrix(5.123649, 0, 0, 5.127762, -225.207626, -290.537601)" fill="none" stroke-linejoin="round" d="M 273.929775 167.439964 C 282.800253 164.180288 292.049642 161.920073 301.430163 160.720262 " stroke="#365fa0" stroke-width="0.624" stroke-opacity="1" stroke-miterlimit="10"/><path stroke-linecap="round" transform="matrix(5.123649, 0, 0, 5.127762, -225.207626, -290.537601)" fill="none" stroke-linejoin="round" d="M 277.500076 187.810083 C 287.1299 185.629856 296.749814 183.439725 306.379638 181.26026 " stroke="#365fa0" stroke-width="0.624" stroke-opacity="1" stroke-miterlimit="10"/><path fill="#00c2cb" d="M 1230.371094 721.734375 C 1239.234375 773.0625 1251.683594 839.828125 1261.675781 889.105469 C 1261.929688 890.488281 1262.394531 891.976562 1263.570312 892.796875 C 1264.800781 893.667969 1266.492188 893.566406 1267.976562 893.359375 C 1300.511719 889.308594 1331.765625 880.027344 1364.300781 875.976562 C 1349.238281 814.855469 1346.164062 765.472656 1331.101562 704.300781 C 1275.867188 713.835938 1230.371094 721.734375 1230.371094 721.734375 Z M 1230.371094 721.734375 " fill-opacity="1" fill-rule="nonzero"/><path stroke-linecap="round" transform="matrix(5.123649, 0, 0, 5.127762, -225.207626, -290.537601)" fill="none" stroke-linejoin="round" d="M 289.840218 262.010186 C 299.679702 260.149908 309.519947 258.300295 319.360193 256.440017 " stroke="#365fa0" stroke-width="0.624" stroke-opacity="1" stroke-miterlimit="10"/><path stroke-linecap="round" transform="matrix(5.123649, 0, 0, 5.127762, -225.207626, -290.537601)" fill="none" stroke-linejoin="round" d="M 290.739846 239.040096 C 291.560184 238.219654 292.090049 237.119637 292.209745 235.970104 C 292.260063 236.520112 292.309619 237.089927 292.610003 237.550045 C 292.909625 238.010163 293.550038 238.299641 294.030347 238.039873 C 294.300235 237.889801 294.47025 237.600323 294.619679 237.329889 C 295.010026 236.590197 295.340143 235.829936 295.610032 235.039965 C 295.799868 235.710335 296.040023 236.450028 296.620206 236.830159 C 297.300264 237.279612 298.26012 237.089927 298.870037 236.549822 C 299.479954 236.009717 299.80016 235.209843 299.970175 234.419872 C 299.759753 235.309637 300.550358 236.229872 301.459896 236.360138 C 302.370197 236.489641 303.269825 235.999813 303.879741 235.309637 C 304.479747 234.620222 304.84036 233.750264 305.179627 232.900112 C 305.089664 233.619998 305.309996 234.400066 305.829951 234.899797 C 306.359816 235.400289 307.199976 235.589973 307.8503 235.260121 C 308.269618 235.049868 308.570002 234.659834 308.859712 234.289607 C 309.560354 233.380036 310.280056 232.430091 310.469893 231.299603 " stroke="#365fa0" stroke-width="0.624" stroke-opacity="1" stroke-miterlimit="10"/></svg>